HIERARCHY
ROOT Hips
{
	OFFSET 0.00000 0.00000 0.00000
	CHANNELS 6 Xposition Yposition Zposition Zrotation Yrotation Xrotation 
	JOINT LHipJoint
	{
		OFFSET 0 0 0
		CHANNELS 3 Zrotation Yrotation Xrotation
		JOINT LeftHip
		{
			OFFSET 1.61328 -1.70571 0.84375
			CHANNELS 3 Zrotation Yrotation Xrotation
			JOINT LeftKnee
			{
				OFFSET 2.32400 -6.38513 0.00000
				CHANNELS 3 Zrotation Yrotation Xrotation
				JOINT LeftAnkle
				{
					OFFSET 2.58843 -7.11166 0.00000
					CHANNELS 3 Zrotation Yrotation Xrotation
					JOINT LeftToe
					{
						OFFSET 0.17200 -0.47257 2.47970
						CHANNELS 3 Zrotation Yrotation Xrotation
						End Site
						{
							OFFSET 0.00000 -0.00000 1.26912
						}
					}
				}
			}
		}
	}
	JOINT RHipJoint
	{
		OFFSET 0 0 0
		CHANNELS 3 Zrotation Yrotation Xrotation
		JOINT RightHip
		{
			OFFSET -1.49930 -1.70570 0.84375
			CHANNELS 3 Zrotation Yrotation Xrotation
			JOINT RightKnee
			{
				OFFSET -2.30458 -6.33178 0.00000
				CHANNELS 3 Zrotation Yrotation Xrotation
				JOINT RightAnkle
				{
					OFFSET -2.62261 -7.20556 0.00000
					CHANNELS 3 Zrotation Yrotation Xrotation
					JOINT RightToe
					{
						OFFSET -0.18709 -0.51403 2.51340
						CHANNELS 3 Zrotation Yrotation Xrotation
						End Site
						{
							OFFSET -0.00000 -0.00000 1.28858
						}
					}
				}
			}
		}
	}
	JOINT lowerback
	{
		OFFSET 0 0 0
		CHANNELS 3 Zrotation Yrotation Xrotation
		JOINT Chest
		{
			OFFSET -0.03798 2.19274 -0.19881
			CHANNELS 3 Zrotation Yrotation Xrotation
			JOINT Chest2
			{
				OFFSET -0.00024 2.19460 0.05248
				CHANNELS 3 Zrotation Yrotation Xrotation
				JOINT lowerneck
				{
					OFFSET 0 0 0
					CHANNELS 3 Zrotation Yrotation Xrotation
					JOINT Neck
					{
						OFFSET -0.00746 1.82323 0.17286
						CHANNELS 3 Zrotation Yrotation Xrotation
						JOINT Head
						{
							OFFSET 0.11826 1.82121 -0.27841
							CHANNELS 3 Zrotation Yrotation Xrotation
							End Site
							{
								OFFSET 0.03496 1.85543 -0.11495
							}
						}
					}
				}
				JOINT LeftCollar
				{
					OFFSET 0 0 0
					CHANNELS 3 Zrotation Yrotation Xrotation
					JOINT LeftShoulder
					{
						OFFSET 3.71926 0.78840 0.25473
CHANNELS 3 Zrotation Xrotation Yrotation
						JOINT LeftElbow
						{
OFFSET 0 -5.375870 0.000000
CHANNELS 3 Zrotation Xrotation Yrotation
							JOINT LeftWrist
							{
OFFSET 0 -3.359770 0.000000
CHANNELS 3 Zrotation Xrotation Yrotation
								JOINT lhand
								{
									OFFSET 0 0 0
CHANNELS 3 Zrotation Xrotation Yrotation
									JOINT LFingers
									{
OFFSET 0 -0.561860 0.000000
CHANNELS 3 Zrotation Xrotation Yrotation
										End Site
										{
OFFSET 0 -0.452990 0.000000
										}
									}
								}
								JOINT LThumb
								{
OFFSET 0 0.000000 0.000000
CHANNELS 3 Zrotation Xrotation Yrotation
									End Site
									{
OFFSET 0 -0.459900 0.459900
									}
								}
							}
						}
					}
				}
				JOINT RightCollar
				{
					OFFSET 0 0 0
					CHANNELS 3 Zrotation Yrotation Xrotation
					JOINT RightShoulder
					{
						OFFSET -3.65136 0.56074 0.01624
CHANNELS 3 Zrotation Xrotation Yrotation
						JOINT RightElbow
						{
OFFSET 0 -5.228190 0.000000
CHANNELS 3 Zrotation Xrotation Yrotation
							JOINT RightWrist
							{
OFFSET 0 -3.407640 0.000000
CHANNELS 3 Zrotation Xrotation Yrotation
								JOINT rhand
								{
									OFFSET 0 0 0
CHANNELS 3 Zrotation Xrotation Yrotation
									JOINT RFingers
									{
OFFSET 0 -0.583250 0.000000
CHANNELS 3 Zrotation Xrotation Yrotation
										End Site
										{
OFFSET 0 -0.470240 0.000000
										}
									}
								}
								JOINT RThumb
								{
OFFSET 0 0.000000 0.000000
CHANNELS 3 Zrotation Xrotation Yrotation
									End Site
									{
OFFSET 0 -0.477420 0.477420
									}
								}
							}
						}
					}
				}
			}
		}
	}
}
MOTION
Frames: 4
Frame Time: 0.008333333333333333
45.566507 16.217127 -6.100555 -711.920042 -351.455404 721.175159 0.000000 0.000000 0.000000 -12.797183 -4.490485 -5.874027 1.924051 8.705746 24.879358 -0.633921 -14.007098 3.704647 0.085487 -1.886092 -5.190883 0.000000 0.000000 0.000000 20.407023 14.122572 -20.815378 -10.825247 -17.848446 62.212670 -1.197066 -1.129295 -21.115084 -1.224029 -7.016671 19.765004 -0.189726 5.962409 1.332721 -2.075230 7.967421 1.242311 -2.050679 3.999444 0.803555 5.714670 7.474636 -10.613779 2.841046 8.764646 14.000783 0.724786 4.778036 6.126652 0.000000 0.000000 0.000000 1.432982 31.330196 -31.965612 11.752344 -19.431880 2.019428 8.856078 -8.880581 -18.342369 0.000000 0.000000 0.000000 -7.125000 0.000000 0.000000 -18.419428 47.643522 1.241516 0.000000 0.000000 0.000000 -8.210786 5.789108 60.960055 -36.069977 -45.559447 -15.573065 -28.604152 -10.000111 -4.008546 0.000000 0.000000 0.000000 7.125000 0.000000 0.000000 -1.483900 25.415972 -0.703600
45.882790 16.231670 -6.186764 -712.274331 -355.679496 721.854444 0.000000 0.000000 0.000000 -13.137503 -4.127122 -7.025339 2.155803 9.182837 26.369345 -0.764212 -15.381434 3.671294 0.085111 -1.880847 -5.176618 0.000000 0.000000 0.000000 21.903631 10.280949 -22.867572 -10.385531 -17.620656 60.768805 -1.744941 -5.392566 -27.369794 -1.362480 -7.387996 20.870142 -0.592532 6.001807 1.350387 -2.130213 8.012417 1.170830 -1.897336 4.017206 0.674929 5.513984 7.578667 -10.574297 3.168985 8.895097 13.481031 0.851658 4.844034 5.931222 0.000000 0.000000 0.000000 2.717733 30.710968 -33.094152 12.795224 -20.985825 2.379867 8.513004 -8.239807 -18.583500 0.000000 0.000000 0.000000 -7.125000 0.000000 0.000000 -18.829515 47.826432 1.358495 0.000000 0.000000 0.000000 -8.327893 6.869942 60.372760 -37.980312 -46.826388 -16.951396 -29.658382 -11.007153 -3.912181 0.000000 0.000000 0.000000 7.125000 0.000000 0.000000 -2.282259 25.479552 -1.079251
46.162021 16.235406 -6.263874 -712.971920 -359.993942 722.335215 0.000000 0.000000 0.000000 -12.989908 -4.411209 -7.911228 2.444012 9.735286 28.123705 -0.906723 -16.857617 3.004247 0.158075 -2.560504 -7.057479 0.000000 0.000000 0.000000 23.994020 7.592019 -23.867588 -9.560424 -17.154907 58.008538 -2.597356 -7.211834 -33.635560 -1.495609 -7.725160 21.882303 -0.768038 6.221664 1.449808 -2.167654 8.299966 1.185424 -1.853072 4.159002 0.624243 5.363630 7.630629 -10.732029 3.626779 8.910593 13.265592 1.017650 4.873153 5.861560 0.000000 0.000000 0.000000 4.953360 29.945968 -33.697951 14.428010 -23.342783 2.995939 10.114247 -8.105508 -18.862147 0.000000 0.000000 0.000000 -7.125000 0.000000 0.000000 -17.471475 48.314910 1.470182 0.000000 0.000000 0.000000 -8.476652 7.737888 60.197277 -38.930922 -47.423579 -17.647920 -30.811948 -12.245968 -3.774837 0.000000 0.000000 0.000000 7.125000 0.000000 0.000000 -3.158429 25.585670 -1.486833
46.426976 16.228911 -6.334071 -713.897070 -364.697531 722.952309 0.000000 0.000000 0.000000 -12.709856 -5.025355 -8.233188 2.649342 10.104436 29.315595 -0.994250 -18.137201 1.027964 0.316636 -3.613156 -9.991248 0.000000 0.000000 0.000000 25.869472 6.386289 -24.153805 -8.578289 -16.527420 54.618246 -3.484380 -7.311990 -38.308430 -1.520364 -7.786060 22.066165 -0.552518 6.552692 1.379196 -2.279442 8.743268 1.138119 -2.076019 4.382802 0.676991 5.142265 7.578759 -10.994063 4.077259 8.784240 13.416964 1.195134 4.837585 5.922295 0.000000 0.000000 0.000000 7.700244 29.389460 -33.872573 16.520101 -26.218450 3.874272 13.990301 -8.540680 -19.283850 0.000000 0.000000 0.000000 -7.125000 0.000000 0.000000 -14.014410 49.288704 1.505929 0.000000 0.000000 0.000000 -8.774056 8.043498 60.840003 -38.854883 -47.376620 -17.591928 -30.955703 -12.519175 -3.516509 0.000000 0.000000 0.000000 7.125000 0.000000 0.000000 -3.282315 25.879328 -1.522951
